# xmcd CD database file
#
# Track frame offsets:
#	150
#	110864
#	121847
#	136071
#	151774
#	170719
#	187819
#	199388
#	213952
#	230424
#	248914
#	264576
#
# Disc length: 3718 seconds
#
# Revision: 1
# Processed by: cddbd v1.5.1PL0 Copyright (c) Steve Scherf et al.
# Submitted via: jetAudio 5
#
DISCID=a60e840c
DTITLE=Billy Gilman - One Voice (Chinese Enhanced CD)
DYEAR=1900
DGENRE=
TTITLE0=Data Track
TTITLE1=Little Things
TTITLE2=I Think She Likes Me
TTITLE3=What's Forever For
TTITLE4=One Voice
TTITLE5=Spend Another Night
TTITLE6=Little Bitty Pretty One
TTITLE7=The Snake Song
TTITLE8=I Wanna Get To Ya
TTITLE9=OKLAHOMA
TTITLE10=There's A Hero
TTITLE11='Till I Can Make It On My Own
EXTD=
EXTT0=
EXTT1=
EXTT2=
EXTT3=
EXTT4=
EXTT5=
EXTT6=
EXTT7=
EXTT8=
EXTT9=
EXTT10=
EXTT11=
PLAYORDER=
